<svg width="17" height="16" viewBox="0 0 17 16" fill="none" xmlns="http://www.w3.org/2000/svg">
<g clip-path="url(#clip0)">
<path fill-rule="evenodd" clip-rule="evenodd" d="M0.714233 4C0.714233 3.46957 0.920432 2.96086 1.28747 2.58579C1.6545 2.21071 2.15231 2 2.67138 2H14.4142C14.9333 2 15.4311 2.21071 15.7981 2.58579C16.1652 2.96086 16.3714 3.46957 16.3714 4V12C16.3714 12.5304 16.1652 13.0391 15.7981 13.4142C15.4311 13.7893 14.9333 14 14.4142 14H2.67138C2.15231 14 1.6545 13.7893 1.28747 13.4142C0.920432 13.0391 0.714233 12.5304 0.714233 12V4ZM2.67138 3C2.41184 3 2.16294 3.10536 1.97942 3.29289C1.7959 3.48043 1.6928 3.73478 1.6928 4V4.217L8.5428 8.417L15.3928 4.217V4C15.3928 3.73478 15.2897 3.48043 15.1062 3.29289C14.9227 3.10536 14.6738 3 14.4142 3H2.67138ZM15.3928 5.383L10.7368 8.238L15.3928 11.114V5.384V5.383ZM15.3595 12.261L9.78657 8.82L8.5428 9.583L7.29806 8.82L1.72608 12.26C1.78205 12.4724 1.90501 12.6601 2.0759 12.7938C2.2468 12.9276 2.4561 13.0001 2.67138 13H14.4142C14.6294 13.0001 14.8386 12.9278 15.0095 12.7942C15.1803 12.6607 15.3034 12.4732 15.3595 12.261ZM1.6928 11.114L6.34885 8.238L1.6928 5.383V11.113V11.114Z" fill="#00000080"/>
</g>
<defs>
<clipPath id="clip0">
<rect width="15.6571" height="16" fill="white" transform="translate(0.714233)"/>
</clipPath>
</defs>
</svg>
