<svg width="17" height="16" viewBox="0 0 17 16" fill="none" xmlns="http://www.w3.org/2000/svg">
<path fill-rule="evenodd" clip-rule="evenodd" d="M0.714233 8C0.714233 5.87827 1.53903 3.84344 3.00717 2.34315C4.47531 0.842855 6.46654 0 8.5428 0C10.6191 0 12.6103 0.842855 14.0784 2.34315C15.5466 3.84344 16.3714 5.87827 16.3714 8C16.3714 10.1217 15.5466 12.1566 14.0784 13.6569C12.6103 15.1571 10.6191 16 8.5428 16C6.46654 16 4.47531 15.1571 3.00717 13.6569C1.53903 12.1566 0.714233 10.1217 0.714233 8ZM8.05352 1.077C7.39788 1.281 6.74713 1.897 6.20695 2.932C6.02898 3.2761 5.87592 3.63305 5.74898 4H8.05352V1.077ZM4.71659 4H2.92091C3.67148 2.89962 4.71464 2.04183 5.92708 1.528C5.70748 1.82199 5.51208 2.13406 5.34288 2.461C5.10117 2.925 4.89078 3.441 4.71659 4ZM4.14706 7.5H1.71042C1.77109 6.61 1.99518 5.767 2.35236 5H4.45238C4.27542 5.82194 4.17321 6.65883 4.14706 7.5ZM5.45737 5H8.05352V7.5H5.12759C5.15442 6.65747 5.26458 5.81987 5.45639 5H5.45737ZM9.03209 5V7.5H11.958C11.9309 6.65743 11.8204 5.81983 11.6282 5H9.03209ZM5.12759 8.5H8.05352V11H5.45737C5.2649 10.1802 5.15408 9.3426 5.12661 8.5H5.12759ZM9.03209 8.5V11H11.6282C11.8112 10.235 11.9277 9.392 11.959 8.5H9.03209ZM5.74898 12H8.05352V14.923C7.39788 14.719 6.74713 14.103 6.20695 13.068C6.02898 12.7239 5.87592 12.3669 5.74898 12ZM5.92708 14.472C5.70747 14.178 5.51206 13.866 5.34288 13.539C5.08931 13.0463 4.8797 12.5312 4.71659 12H2.92091C3.67144 13.1004 4.71461 13.9582 5.92708 14.472ZM4.45238 11H2.35236C1.98747 10.2149 1.76973 9.36699 1.71042 8.5H4.14706C4.17642 9.377 4.2821 10.218 4.45238 11ZM11.1585 14.472C12.371 13.9582 13.4142 13.1004 14.1647 12H12.369C12.2059 12.5312 11.9963 13.0463 11.7427 13.539C11.5736 13.866 11.3782 14.178 11.1585 14.472ZM9.03209 12H11.3366C11.2097 12.367 11.0566 12.7239 10.8787 13.068C10.3385 14.103 9.68676 14.718 9.03209 14.923V12ZM12.6332 11H14.7332C15.0904 10.233 15.3145 9.39 15.3752 8.5H12.9385C12.9124 9.34117 12.8102 10.1781 12.6332 11ZM15.3752 7.5H12.9385C12.9124 6.65883 12.8102 5.82193 12.6332 5H14.7332C15.0904 5.767 15.3145 6.61 15.3752 7.5ZM11.7427 2.461C11.9844 2.925 12.1948 3.441 12.369 4H14.1647C13.4142 2.89958 12.371 2.04178 11.1585 1.528C11.3719 1.812 11.5676 2.126 11.7427 2.461ZM11.3366 4H9.03209V1.077C9.68773 1.281 10.3385 1.897 10.8787 2.932C11.0479 3.256 11.2016 3.614 11.3366 4Z" fill="#00000080"/>
</svg>
