<svg width="17" height="16" viewBox="0 0 17 16" fill="none" xmlns="http://www.w3.org/2000/svg">
<g clip-path="url(#clip0)">
<path fill-rule="evenodd" clip-rule="evenodd" d="M4.28258 1.32439C4.22481 1.24845 4.15189 1.18594 4.06867 1.14101C3.98544 1.09609 3.89381 1.06977 3.79987 1.06381C3.70593 1.05785 3.61182 1.07239 3.52379 1.10645C3.43577 1.14052 3.35585 1.19333 3.28933 1.26139L2.27749 2.29639C1.80484 2.78039 1.63065 3.46539 1.83713 4.06639C2.69411 6.55398 4.08813 8.81248 5.91582 10.6744C7.73784 12.5421 9.94795 13.9666 12.3822 14.8424C12.9703 15.0534 13.6407 14.8754 14.1143 14.3924L15.1261 13.3584C15.1927 13.2904 15.2444 13.2087 15.2777 13.1188C15.3111 13.0288 15.3253 12.9327 15.3195 12.8367C15.3136 12.7407 15.2879 12.647 15.2439 12.562C15.2 12.4769 15.1388 12.4024 15.0645 12.3434L12.8069 10.5494C12.7275 10.4865 12.6352 10.4428 12.5369 10.4217C12.4385 10.4005 12.3368 10.4025 12.2393 10.4274L10.0963 10.9744C9.81022 11.0474 9.51052 11.0436 9.22637 10.9631C8.94221 10.8827 8.68328 10.7284 8.47478 10.5154L6.07141 8.05839C5.86275 7.84543 5.71162 7.58087 5.63273 7.29049C5.55384 7.0001 5.54989 6.69379 5.62127 6.40139L6.15752 4.21139C6.1819 4.11178 6.18382 4.00782 6.16314 3.90735C6.14245 3.80688 6.09971 3.71252 6.03814 3.63139L4.28258 1.32439ZM2.55051 0.507389C2.72176 0.332338 2.92748 0.196519 3.15403 0.10895C3.38058 0.0213808 3.62277 -0.0159345 3.86452 -0.000518215C4.10626 0.0148981 4.34203 0.0826932 4.55617 0.198365C4.77031 0.314038 4.95792 0.47494 5.10654 0.670389L6.8621 2.97639C7.18405 3.39939 7.29756 3.95039 7.17035 4.47039L6.63507 6.66039C6.60739 6.77382 6.60889 6.89263 6.63941 7.0053C6.66993 7.11796 6.72844 7.22065 6.80925 7.30339L9.2136 9.76039C9.29466 9.84314 9.39532 9.90303 9.50576 9.93423C9.6162 9.96542 9.73266 9.96685 9.8438 9.93839L11.9859 9.39139C12.237 9.32723 12.4991 9.32224 12.7524 9.37681C13.0057 9.43139 13.2435 9.54408 13.4479 9.70639L15.7045 11.5004C16.5157 12.1454 16.5901 13.3704 15.864 14.1114L14.8521 15.1454C14.128 15.8854 13.0457 16.2104 12.0368 15.8474C9.45451 14.9189 7.10994 13.4082 5.177 11.4274C3.23873 9.4524 1.76042 7.05685 0.85171 4.41839C0.497467 3.38839 0.815503 2.28139 1.53965 1.54139L2.55149 0.507389H2.55051Z" fill="#00000080"/>
</g>
<defs>
<clipPath id="clip0">
<rect width="15.6571" height="16" fill="white" transform="translate(0.714233)"/>
</clipPath>
</defs>
</svg>
