<?xml version="1.0" encoding="utf-8"?><svg viewBox="0 0 157.33 267.55" xmlns="http://www.w3.org/2000/svg" xmlns:xlink="http://www.w3.org/1999/xlink"><style>:root>svg{display:none}:root>svg:target{display:block}</style><svg viewBox="0 0 16 16" class="bbi bbi-chat" fill="currentColor" id="icons--chat" xmlns="http://www.w3.org/2000/svg"><path fill-rule="evenodd" d="M2.678 11.894a1 1 0 0 1 .287.801 10.97 10.97 0 0 1-.398 2c1.395-.323 2.247-.697 2.634-.893a1 1 0 0 1 .71-.074A8.06 8.06 0 0 0 8 14c3.996 0 7-2.807 7-6 0-3.192-3.004-6-7-6S1 4.808 1 8c0 1.468.617 2.83 1.678 3.894zm-.493 3.905a21.682 21.682 0 0 1-.713.129c-.2.032-.352-.176-.273-.362a9.68 9.68 0 0 0 .244-.637l.003-.01c.248-.72.45-1.548.524-2.319C.743 11.37 0 9.76 0 8c0-3.866 3.582-7 8-7s8 3.134 8 7-3.582 7-8 7a9.06 9.06 0 0 1-2.347-.306c-.52.263-1.639.742-3.468 1.105z"/></svg><svg viewBox="0 0 16 16" class="abi abi-chat-left-text" fill="currentColor" id="icons--chat-left-text" xmlns="http://www.w3.org/2000/svg"><path fill-rule="evenodd" d="M14 1H2a1 1 0 0 0-1 1v11.586l2-2A2 2 0 0 1 4.414 11H14a1 1 0 0 0 1-1V2a1 1 0 0 0-1-1zM2 0a2 2 0 0 0-2 2v12.793a.5.5 0 0 0 .854.353l2.853-2.853A1 1 0 0 1 4.414 12H14a2 2 0 0 0 2-2V2a2 2 0 0 0-2-2H2z"/><path fill-rule="evenodd" d="M3 3.5a.5.5 0 0 1 .5-.5h9a.5.5 0 0 1 0 1h-9a.5.5 0 0 1-.5-.5zM3 6a.5.5 0 0 1 .5-.5h9a.5.5 0 0 1 0 1h-9A.5.5 0 0 1 3 6zm0 2.5a.5.5 0 0 1 .5-.5h5a.5.5 0 0 1 0 1h-5a.5.5 0 0 1-.5-.5z"/></svg><svg viewBox="0 0 16 16" class="cbi cbi-cursor" fill="rgba(255, 255, 255, 1)" id="icons--cursor" xmlns="http://www.w3.org/2000/svg"><path fill-rule="evenodd" d="M14.082 2.182a.5.5 0 0 1 .103.557L8.528 15.467a.5.5 0 0 1-.917-.007L5.57 10.694.803 8.652a.5.5 0 0 1-.006-.916l12.728-5.657a.5.5 0 0 1 .556.103zM2.25 8.184l3.897 1.67a.5.5 0 0 1 .262.263l1.67 3.897L12.743 3.52 2.25 8.184z"/></svg><svg fill="none" viewBox="0 0 17 16" id="icons--envelope" xmlns="http://www.w3.org/2000/svg"><g clip-path="url(#da)"><path fill-rule="evenodd" clip-rule="evenodd" d="M.714 4c0-.53.206-1.04.573-1.414A1.936 1.936 0 0 1 2.671 2h11.743c.52 0 1.017.21 1.384.586.367.375.573.884.573 1.414v8c0 .53-.206 1.04-.573 1.414a1.936 1.936 0 0 1-1.384.586H2.671c-.519 0-1.016-.21-1.384-.586A2.022 2.022 0 0 1 .714 12V4Zm1.957-1a.968.968 0 0 0-.692.293A1.011 1.011 0 0 0 1.693 4v.217l6.85 4.2 6.85-4.2V4c0-.265-.103-.52-.287-.707A.968.968 0 0 0 14.414 3H2.671Zm12.722 2.383-4.656 2.855 4.656 2.876V5.383Zm-.034 6.878L9.788 8.82l-1.244.763-1.245-.763-5.572 3.44c.056.212.179.4.35.534.17.134.38.206.595.206h11.743a.965.965 0 0 0 .595-.206c.171-.133.294-.32.35-.533ZM1.694 11.114l4.656-2.876-4.656-2.855V11.114Z" fill="#00000080"/></g><defs><clipPath id="da"><path fill="#fff" transform="translate(.714)" d="M0 0h15.657v16H0z"/></clipPath></defs></svg><svg fill="none" viewBox="0 0 17 16" id="icons--globe_(1)" xmlns="http://www.w3.org/2000/svg"><path fill-rule="evenodd" clip-rule="evenodd" d="M.714 8a8.09 8.09 0 0 1 2.293-5.657A7.744 7.744 0 0 1 8.543 0c2.076 0 4.067.843 5.535 2.343A8.09 8.09 0 0 1 16.371 8a8.09 8.09 0 0 1-2.293 5.657A7.745 7.745 0 0 1 8.543 16a7.745 7.745 0 0 1-5.536-2.343A8.09 8.09 0 0 1 .714 8Zm7.34-6.923c-.656.204-1.307.82-1.847 1.855A8.062 8.062 0 0 0 5.749 4h2.305V1.077ZM4.717 4H2.92a6.905 6.905 0 0 1 3.006-2.472 6.72 6.72 0 0 0-.584.933c-.242.464-.452.98-.626 1.539Zm-.57 3.5H1.71c.061-.89.285-1.733.642-2.5h2.1c-.177.822-.279 1.659-.305 2.5ZM5.457 5h2.597v2.5H5.128c.026-.843.137-1.68.328-2.5h.001Zm3.575 0v2.5h2.926a12.75 12.75 0 0 0-.33-2.5H9.032ZM5.128 8.5h2.926V11H5.457a12.758 12.758 0 0 1-.33-2.5Zm3.904 0V11h2.596c.183-.765.3-1.608.331-2.5H9.032ZM5.75 12h2.305v2.923c-.656-.204-1.307-.82-1.847-1.855A8.065 8.065 0 0 1 5.749 12Zm.178 2.472a6.715 6.715 0 0 1-.584-.933A9.38 9.38 0 0 1 4.717 12H2.92a6.904 6.904 0 0 0 3.006 2.472ZM4.452 11h-2.1a7.08 7.08 0 0 1-.642-2.5h2.437c.03.877.135 1.718.305 2.5Zm6.707 3.472A6.904 6.904 0 0 0 14.165 12h-1.796a9.377 9.377 0 0 1-.626 1.539c-.17.327-.365.639-.585.933ZM9.032 12h2.305c-.127.367-.28.724-.458 1.068-.54 1.035-1.192 1.65-1.847 1.855V12Zm3.601-1h2.1c.357-.767.582-1.61.642-2.5h-2.437a13.928 13.928 0 0 1-.305 2.5Zm2.742-3.5h-2.437a13.928 13.928 0 0 0-.305-2.5h2.1c.357.767.582 1.61.642 2.5Zm-3.632-5.039c.241.464.452.98.626 1.539h1.796a6.903 6.903 0 0 0-3.006-2.472c.213.284.409.598.584.933ZM11.337 4H9.032V1.077c.656.204 1.306.82 1.847 1.855.169.324.323.682.458 1.068Z" fill="#00000080"/></svg><svg viewBox="0 0 157.33 267.55" id="icons--logo" xmlns="http://www.w3.org/2000/svg"><defs><style>.fcls-1{fill:#1a1a1a}</style></defs><path fill="none" id="fcanvas_background" d="M-1-1h159.33v269.55H-1z"/><path id="fsvg_1" d="M139.44 267.38h-6.12a9 9 0 0 1-9-9v-75.12H32.56v75.12a9 9 0 0 1-9 9h-6a9 9 0 0 1-9-9v-173l24 16v62.25h91.75v-62.25l24.13-16v173a9 9 0 0 1-9 9z" class="fcls-1"/><path id="fsvg_2" class="fcls-1" d="m1 44.88 77.5 44.88L156 44.88 78.5 0 1 44.88z"/></svg><svg viewBox="0 0 16 16" class="hbi hbi-people" fill="#FBFBFB" id="icons--people" xmlns="http://www.w3.org/2000/svg"><path fill-rule="evenodd" d="M15 14s1 0 1-1-1-4-5-4-5 3-5 4 1 1 1 1h8zm-7.978-1h7.956a.274.274 0 0 0 .014-.002l.008-.002c-.002-.264-.167-1.03-.76-1.72C13.688 10.629 12.718 10 11 10c-1.717 0-2.687.63-3.24 1.276-.593.69-.759 1.457-.76 1.72a1.05 1.05 0 0 0 .022.004zM11 7a2 2 0 1 0 0-4 2 2 0 0 0 0 4zm3-2a3 3 0 1 1-6 0 3 3 0 0 1 6 0zM6.936 9.28a5.88 5.88 0 0 0-1.23-.247A7.35 7.35 0 0 0 5 9c-4 0-5 3-5 4 0 .667.333 1 1 1h4.216A2.238 2.238 0 0 1 5 13c0-1.01.377-2.042 1.09-2.904.243-.294.526-.569.846-.816zM4.92 10c-1.668.02-2.615.64-3.16 1.276C1.163 11.97 1 12.739 1 13h3c0-1.045.323-2.086.92-3zM1.5 5.5a3 3 0 1 1 6 0 3 3 0 0 1-6 0zm3-2a2 2 0 1 0 0 4 2 2 0 0 0 0-4z"/></svg><svg fill="currentColor" class="gbi gbi-people" viewBox="0 0 16 16" id="icons--people-3" xmlns="http://www.w3.org/2000/svg"><path d="M15 14s1 0 1-1-1-4-5-4-5 3-5 4 1 1 1 1h8Zm-7.978-1A.261.261 0 0 1 7 12.996c.001-.264.167-1.03.76-1.72C8.312 10.629 9.282 10 11 10c1.717 0 2.687.63 3.24 1.276.593.69.758 1.457.76 1.72l-.008.002a.274.274 0 0 1-.014.002H7.022ZM11 7a2 2 0 1 0 0-4 2 2 0 0 0 0 4Zm3-2a3 3 0 1 1-6 0 3 3 0 0 1 6 0ZM6.936 9.28a5.88 5.88 0 0 0-1.23-.247A7.35 7.35 0 0 0 5 9c-4 0-5 3-5 4 0 .667.333 1 1 1h4.216A2.238 2.238 0 0 1 5 13c0-1.01.377-2.042 1.09-2.904.243-.294.526-.569.846-.816ZM4.92 10A5.493 5.493 0 0 0 4 13H1c0-.26.164-1.03.76-1.724.545-.636 1.492-1.256 3.16-1.275ZM1.5 5.5a3 3 0 1 1 6 0 3 3 0 0 1-6 0Zm3-2a2 2 0 1 0 0 4 2 2 0 0 0 0-4Z"/></svg><svg viewBox="0 0 16 16" class="ibi ibi-person" fill="currentColor" id="icons--person" xmlns="http://www.w3.org/2000/svg"><path fill-rule="evenodd" d="M10 5a2 2 0 1 1-4 0 2 2 0 0 1 4 0zM8 8a3 3 0 1 0 0-6 3 3 0 0 0 0 6zm6 5c0 1-1 1-1 1H3s-1 0-1-1 1-4 6-4 6 3 6 4zm-1-.004c-.001-.246-.154-.986-.832-1.664C11.516 10.68 10.289 10 8 10c-2.29 0-3.516.68-4.168 1.332-.678.678-.83 1.418-.832 1.664h10z"/></svg><svg fill="none" viewBox="0 0 17 16" id="icons--telephone" xmlns="http://www.w3.org/2000/svg"><g clip-path="url(#ja)"><path fill-rule="evenodd" clip-rule="evenodd" d="M4.283 1.324a.667.667 0 0 0-.483-.26.65.65 0 0 0-.51.197L2.276 2.296c-.472.484-.646 1.17-.44 1.77a17.625 17.625 0 0 0 4.079 6.608 17.147 17.147 0 0 0 6.466 4.168c.588.211 1.259.033 1.732-.45l1.012-1.034a.68.68 0 0 0 .194-.521.69.69 0 0 0-.255-.494l-2.258-1.794a.657.657 0 0 0-.568-.122l-2.143.547c-.286.073-.585.07-.87-.01a1.7 1.7 0 0 1-.751-.449L6.07 8.058a1.754 1.754 0 0 1-.438-.768 1.782 1.782 0 0 1-.012-.889l.537-2.19a.692.692 0 0 0-.12-.58L4.283 1.324ZM2.55.507A1.674 1.674 0 0 1 4.557.198c.213.116.4.277.55.472l1.755 2.306c.322.423.436.974.308 1.494l-.535 2.19a.692.692 0 0 0 .174.643L9.214 9.76a.66.66 0 0 0 .63.178l2.142-.547a1.672 1.672 0 0 1 1.462.315l2.256 1.794a1.77 1.77 0 0 1 .16 2.611l-1.012 1.034c-.724.74-1.806 1.065-2.815.702a18.187 18.187 0 0 1-6.86-4.42A18.694 18.694 0 0 1 .852 4.418c-.355-1.03-.036-2.137.688-2.877L2.55.507Z" fill="#00000080"/></g><defs><clipPath id="ja"><path fill="#fff" transform="translate(.714)" d="M0 0h15.657v16H0z"/></clipPath></defs></svg></svg>