<?xml version="1.0" encoding="utf-8"?><svg viewBox="0 0 109 40" xmlns="http://www.w3.org/2000/svg" xmlns:xlink="http://www.w3.org/1999/xlink"><style>:root>svg{display:none}:root>svg:target{display:block}</style><svg viewBox="0 0 16 16" class="bbi bbi-chat" fill="currentColor" id="icons--chat" xmlns="http://www.w3.org/2000/svg"><path fill-rule="evenodd" d="M2.678 11.894a1 1 0 0 1 .287.801 10.97 10.97 0 0 1-.398 2c1.395-.323 2.247-.697 2.634-.893a1 1 0 0 1 .71-.074A8.06 8.06 0 0 0 8 14c3.996 0 7-2.807 7-6 0-3.192-3.004-6-7-6S1 4.808 1 8c0 1.468.617 2.83 1.678 3.894zm-.493 3.905a21.682 21.682 0 0 1-.713.129c-.2.032-.352-.176-.273-.362a9.68 9.68 0 0 0 .244-.637l.003-.01c.248-.72.45-1.548.524-2.319C.743 11.37 0 9.76 0 8c0-3.866 3.582-7 8-7s8 3.134 8 7-3.582 7-8 7a9.06 9.06 0 0 1-2.347-.306c-.52.263-1.639.742-3.468 1.105z"/></svg><svg viewBox="0 0 16 16" class="abi abi-chat-left-text" fill="currentColor" id="icons--chat-left-text" xmlns="http://www.w3.org/2000/svg"><path fill-rule="evenodd" d="M14 1H2a1 1 0 0 0-1 1v11.586l2-2A2 2 0 0 1 4.414 11H14a1 1 0 0 0 1-1V2a1 1 0 0 0-1-1zM2 0a2 2 0 0 0-2 2v12.793a.5.5 0 0 0 .854.353l2.853-2.853A1 1 0 0 1 4.414 12H14a2 2 0 0 0 2-2V2a2 2 0 0 0-2-2H2z"/><path fill-rule="evenodd" d="M3 3.5a.5.5 0 0 1 .5-.5h9a.5.5 0 0 1 0 1h-9a.5.5 0 0 1-.5-.5zM3 6a.5.5 0 0 1 .5-.5h9a.5.5 0 0 1 0 1h-9A.5.5 0 0 1 3 6zm0 2.5a.5.5 0 0 1 .5-.5h5a.5.5 0 0 1 0 1h-5a.5.5 0 0 1-.5-.5z"/></svg><svg fill="none" viewBox="0 0 98 25" id="icons--contacts" xmlns="http://www.w3.org/2000/svg"><path fill-rule="evenodd" clip-rule="evenodd" d="M23.438 21.875s1.562 0 1.562-1.563c0-1.562-1.563-6.25-7.813-6.25s-7.812 4.688-7.812 6.25c0 1.563 1.563 1.563 1.563 1.563h12.5Zm-12.466-1.563h12.431a.55.55 0 0 0 .022-.003l.012-.003c-.003-.412-.26-1.61-1.187-2.687-.863-1.011-2.378-1.994-5.063-1.994-2.682 0-4.198.984-5.062 1.994-.927 1.078-1.186 2.276-1.188 2.687.012.002.023.005.035.006Zm6.216-9.375a3.125 3.125 0 1 0 0-6.249 3.125 3.125 0 0 0 0 6.25Zm4.687-3.124a4.687 4.687 0 1 1-9.374 0 4.687 4.687 0 0 1 9.374 0ZM10.838 14.5a9.185 9.185 0 0 0-1.922-.386 11.477 11.477 0 0 0-1.104-.052C1.563 14.063 0 18.75 0 20.313c0 1.043.52 1.563 1.563 1.563H8.15a3.497 3.497 0 0 1-.338-1.563c0-1.578.59-3.19 1.704-4.537.38-.46.822-.89 1.322-1.275Zm-3.15 1.125c-2.607.031-4.086 1-4.938 1.994-.933 1.084-1.188 2.286-1.188 2.694H6.25c0-1.633.505-3.26 1.438-4.688ZM2.343 8.594a4.687 4.687 0 1 1 9.375 0 4.687 4.687 0 0 1-9.375 0ZM7.03 5.469a3.125 3.125 0 1 0 0 6.25 3.125 3.125 0 0 0 0-6.25Z" fill="#FBFBFB"/><path d="M35.536 8.047V18h-1.32V8.047h1.32Zm6.132 0-4.32 5.476H35.01l-.205-1.094h1.757l3.472-4.382h1.634ZM40.342 18l-3.74-4.648.739-1.156L41.955 18h-1.613Zm2.092-3.616v-.157c0-.534.077-1.028.232-1.484.155-.46.378-.859.67-1.196a2.99 2.99 0 0 1 1.06-.793 3.29 3.29 0 0 1 1.394-.287c.52 0 .987.095 1.401.287.42.187.775.451 1.067.793.296.337.522.736.677 1.196.154.456.232.95.232 1.484v.157c0 .533-.078 1.027-.232 1.483-.155.456-.381.855-.677 1.197a3.1 3.1 0 0 1-1.06.792c-.41.187-.875.28-1.394.28-.52 0-.987-.093-1.402-.28a3.172 3.172 0 0 1-1.066-.793 3.616 3.616 0 0 1-.67-1.196 4.582 4.582 0 0 1-.232-1.483Zm1.264-.157v.157c0 .369.044.718.13 1.046.087.323.217.61.39.861.177.25.398.449.663.595.264.141.572.212.923.212.346 0 .65-.071.909-.212.264-.146.483-.344.656-.595.173-.25.303-.538.39-.861.09-.328.136-.677.136-1.046v-.157c0-.365-.045-.71-.136-1.033a2.658 2.658 0 0 0-.397-.868 1.884 1.884 0 0 0-.656-.601 1.841 1.841 0 0 0-.916-.22c-.346 0-.652.074-.916.22-.26.145-.479.346-.656.601-.173.25-.303.54-.39.868-.087.324-.13.668-.13 1.033Zm12.072-.417v1.025h-3.91V13.81h3.91Zm-3.643-3.207V18h-1.265v-7.396h1.265Zm4.669 0V18h-1.272v-7.396h1.272Zm5.052 0V18h-1.272v-7.396h1.272Zm2.481 0v1.026h-6.186v-1.025h6.186Zm5.496 6.132v-3.807c0-.292-.059-.545-.178-.76a1.163 1.163 0 0 0-.52-.505c-.231-.118-.519-.178-.86-.178-.32 0-.6.055-.841.164-.237.11-.424.253-.56.431a.944.944 0 0 0-.199.574h-1.265c0-.264.069-.526.205-.786.137-.26.333-.494.588-.704.26-.214.57-.383.93-.506.365-.127.77-.191 1.217-.191.538 0 1.011.09 1.422.273.414.182.738.458.97.827.237.365.356.823.356 1.374v3.446c0 .246.02.508.061.786.046.278.112.517.199.718V18h-1.32a2.36 2.36 0 0 1-.15-.581 4.679 4.679 0 0 1-.055-.684Zm.219-3.22.014.89h-1.279c-.36 0-.681.029-.964.088-.282.055-.52.14-.71.253a1.202 1.202 0 0 0-.438.43c-.1.17-.15.368-.15.595 0 .233.052.445.157.636.105.192.262.344.471.458.215.11.477.164.787.164.387 0 .729-.082 1.025-.246.296-.164.531-.364.704-.601.178-.237.274-.467.287-.69l.54.608a1.837 1.837 0 0 1-.26.635 3.06 3.06 0 0 1-1.401 1.196 2.715 2.715 0 0 1-1.08.206c-.501 0-.941-.098-1.32-.294a2.256 2.256 0 0 1-.874-.786 2.081 2.081 0 0 1-.308-1.115c0-.396.078-.745.233-1.046.154-.305.378-.558.67-.758a3.18 3.18 0 0 1 1.052-.465 5.55 5.55 0 0 1 1.374-.157h1.47Zm4.41-2.912V18h-1.265v-7.396h1.264Zm4.853 0L75.8 14.843h-1.77l-.192-1.108h1.45l2.48-3.13h1.539ZM77.947 18l-2.721-3.35.813-.916L79.553 18h-1.607Zm5.721-7.396V18h-1.272v-7.396h1.272Zm2.481 0v1.025h-6.186v-1.025h6.186Zm2.284 2.543h2.221c.597 0 1.1.104 1.511.314.41.205.72.49.93.854.214.36.321.77.321 1.23 0 .343-.06.664-.178.965a2.165 2.165 0 0 1-.533.78 2.461 2.461 0 0 1-.868.525 3.482 3.482 0 0 1-1.183.185H87.51v-7.396h1.264v6.357h1.88c.365 0 .657-.066.875-.198.219-.133.376-.303.472-.513a1.563 1.563 0 0 0 0-1.313 1.228 1.228 0 0 0-.472-.533c-.218-.146-.51-.219-.875-.219h-2.221v-1.039Zm7.615-2.543V18h-1.265v-7.396h1.265Z" fill="#FBFBFB"/></svg><svg viewBox="0 0 16 16" class="dbi dbi-cursor" fill="currentColor" id="icons--cursor" xmlns="http://www.w3.org/2000/svg"><path fill-rule="evenodd" d="M14.082 2.182a.5.5 0 0 1 .103.557L8.528 15.467a.5.5 0 0 1-.917-.007L5.57 10.694.803 8.652a.5.5 0 0 1-.006-.916l12.728-5.657a.5.5 0 0 1 .556.103zM2.25 8.184l3.897 1.67a.5.5 0 0 1 .262.263l1.67 3.897L12.743 3.52 2.25 8.184z"/></svg><svg fill="none" viewBox="0 0 25 40" id="icons--logo" xmlns="http://www.w3.org/2000/svg"><path d="M18.294 32.984h-.583a.867.867 0 0 1-.607-.246.833.833 0 0 1-.251-.595v-7.02H8.104v7.02c0 .223-.09.437-.251.595a.867.867 0 0 1-.607.246h-.572a.867.867 0 0 1-.607-.246.832.832 0 0 1-.25-.595V15.978l2.287 1.495v5.817h8.748v-5.817l2.3-1.495v16.165c0 .223-.09.437-.25.595a.867.867 0 0 1-.608.246Z" fill="#fff"/><path d="m5.095 12.194 7.39 4.193 7.388-4.193L12.484 8l-7.389 4.194Z" fill="#fff"/></svg><svg fill="none" viewBox="0 0 109 25" id="icons--message" xmlns="http://www.w3.org/2000/svg"><path fill-rule="evenodd" clip-rule="evenodd" d="M4.184 18.584a1.563 1.563 0 0 1 .449 1.252 17.139 17.139 0 0 1-.622 3.125c2.18-.505 3.51-1.09 4.116-1.395a1.562 1.562 0 0 1 1.109-.116c1.065.284 2.162.427 3.264.425 6.244 0 10.938-4.386 10.938-9.375 0-4.987-4.694-9.375-10.938-9.375-6.244 0-10.938 4.388-10.938 9.375 0 2.294.965 4.422 2.622 6.084Zm-.77 6.102c-.37.073-.742.14-1.114.201-.312.05-.55-.274-.427-.565.14-.327.266-.66.382-.995l.004-.016c.388-1.125.704-2.419.82-3.623C1.16 17.765 0 15.25 0 12.5 0 6.46 5.597 1.562 12.5 1.562S25 6.46 25 12.5c0 6.04-5.597 10.938-12.5 10.938a14.157 14.157 0 0 1-3.667-.479c-.813.411-2.561 1.16-5.419 1.727Z" fill="#FBFBFB"/><path d="M40.164 14.835h1.313a4.186 4.186 0 0 1-.54 1.688 3.157 3.157 0 0 1-1.238 1.183c-.533.287-1.198.43-1.996.43-.583 0-1.114-.109-1.593-.327a3.54 3.54 0 0 1-1.223-.93 4.35 4.35 0 0 1-.793-1.456 6.215 6.215 0 0 1-.274-1.9v-.992c0-.697.091-1.328.274-1.893.187-.57.453-1.058.8-1.463.35-.406.772-.718 1.264-.937.492-.218 1.046-.328 1.661-.328.752 0 1.388.141 1.908.424.52.283.922.674 1.21 1.176.291.497.471 1.073.54 1.73h-1.313a3.658 3.658 0 0 0-.355-1.197 1.848 1.848 0 0 0-.739-.78c-.319-.182-.736-.273-1.25-.273a2.58 2.58 0 0 0-1.17.253 2.353 2.353 0 0 0-.84.718 3.34 3.34 0 0 0-.506 1.114c-.114.433-.171.914-.171 1.443v1.005c0 .487.05.945.15 1.373.105.429.262.805.472 1.128.21.324.476.58.8.766.323.182.706.274 1.148.274.56 0 1.007-.09 1.34-.267.333-.178.583-.433.752-.766a3.89 3.89 0 0 0 .37-1.196Zm2.584-.451v-.157c0-.534.078-1.028.233-1.484.154-.46.378-.859.67-1.196a2.99 2.99 0 0 1 1.059-.793 3.29 3.29 0 0 1 1.395-.287c.519 0 .986.095 1.4.287.42.187.776.451 1.067.793.296.337.522.736.677 1.196.155.456.232.95.232 1.484v.157c0 .533-.077 1.027-.232 1.483a3.55 3.55 0 0 1-.677 1.197 3.101 3.101 0 0 1-1.06.792c-.41.187-.874.28-1.394.28-.52 0-.986-.093-1.401-.28a3.171 3.171 0 0 1-1.067-.793 3.612 3.612 0 0 1-.67-1.196 4.579 4.579 0 0 1-.232-1.483Zm1.265-.157v.157c0 .369.043.718.13 1.046.086.323.216.61.39.861.177.25.398.449.662.595.265.141.572.212.923.212.346 0 .65-.071.91-.212.264-.146.482-.344.656-.595a2.75 2.75 0 0 0 .39-.861 3.89 3.89 0 0 0 .136-1.046v-.157a3.79 3.79 0 0 0-.137-1.033 2.656 2.656 0 0 0-.396-.868 1.885 1.885 0 0 0-.657-.601 1.841 1.841 0 0 0-.916-.22c-.346 0-.651.074-.916.22-.26.145-.478.346-.656.601-.173.25-.303.54-.39.868-.086.324-.13.668-.13 1.033Zm6.72.157v-.157c0-.534.077-1.028.232-1.484.155-.46.378-.859.67-1.196a2.989 2.989 0 0 1 1.06-.793 3.29 3.29 0 0 1 1.394-.287c.52 0 .986.095 1.401.287.42.187.775.451 1.067.793.296.337.521.736.676 1.196.155.456.233.95.233 1.484v.157c0 .533-.078 1.027-.233 1.483-.154.456-.38.855-.676 1.197a3.1 3.1 0 0 1-1.06.792c-.41.187-.875.28-1.395.28-.519 0-.986-.093-1.4-.28a3.171 3.171 0 0 1-1.067-.793 3.614 3.614 0 0 1-.67-1.196 4.582 4.582 0 0 1-.233-1.483Zm1.264-.157v.157c0 .369.043.718.13 1.046.087.323.216.61.39.861.177.25.398.449.663.595.264.141.572.212.922.212.347 0 .65-.071.91-.212.264-.146.483-.344.656-.595.173-.25.303-.538.39-.861a3.89 3.89 0 0 0 .136-1.046v-.157a3.79 3.79 0 0 0-.136-1.033 2.656 2.656 0 0 0-.397-.868 1.883 1.883 0 0 0-.656-.601 1.841 1.841 0 0 0-.916-.22c-.346 0-.652.074-.916.22-.26.145-.479.346-.656.601-.174.25-.303.54-.39.868-.087.324-.13.668-.13 1.033Zm11.799-6.843h1.039c0 .446-.068.802-.205 1.066a1.49 1.49 0 0 1-.56.602 2.808 2.808 0 0 1-.794.321c-.291.073-.594.144-.909.212a4.163 4.163 0 0 0-1.094.39c-.332.173-.62.419-.86.738-.238.319-.413.734-.527 1.244-.11.51-.14 1.142-.09 1.894v.628h-1.038v-.628c0-.844.08-1.58.24-2.208.163-.63.393-1.16.69-1.593a3.597 3.597 0 0 1 1.052-1.032c.41-.256.862-.431 1.354-.527.355-.068.66-.141.916-.219.255-.082.449-.191.58-.328.137-.136.206-.323.206-.56Zm-1.497 3.643c.483 0 .914.085 1.292.253.378.169.7.404.964.704.264.301.464.657.601 1.067.141.405.212.847.212 1.326v.15c0 .515-.075.994-.225 1.436-.146.437-.363.82-.65 1.148a2.95 2.95 0 0 1-1.039.76 3.352 3.352 0 0 1-1.388.273 3.4 3.4 0 0 1-1.394-.274 3.033 3.033 0 0 1-1.04-.759 3.403 3.403 0 0 1-.655-1.148 4.555 4.555 0 0 1-.22-1.436v-.15c0-.114.021-.226.062-.335.041-.11.091-.221.15-.335.064-.114.121-.235.172-.362.168-.41.398-.791.69-1.142.296-.35.65-.633 1.06-.848a2.971 2.971 0 0 1 1.408-.328Zm-.246 1.033c-.465 0-.848.107-1.149.32a1.936 1.936 0 0 0-.663.855c-.146.351-.218.732-.218 1.142v.15c0 .347.04.675.122.985.082.31.206.585.37.827.168.237.38.424.635.56.26.137.566.206.916.206a1.9 1.9 0 0 0 .91-.206c.255-.136.464-.323.629-.56.164-.242.287-.517.369-.827a3.83 3.83 0 0 0 .123-.985v-.15c0-.31-.041-.604-.123-.882a2.175 2.175 0 0 0-.376-.738 1.704 1.704 0 0 0-.636-.506 2.012 2.012 0 0 0-.91-.191Zm14.909 4.9-.123 3.234H75.71V18h-.964v-1.04h2.215Zm-10.247-6.357h1.264v6.358h2.707v-6.357h1.272v6.357h2.7v-6.357h1.265V18h-9.208v-7.396Zm14.71 7.534a3.64 3.64 0 0 1-1.4-.26 3.179 3.179 0 0 1-1.074-.745 3.313 3.313 0 0 1-.683-1.135 4.162 4.162 0 0 1-.24-1.435v-.288c0-.601.09-1.137.267-1.606.178-.474.42-.875.724-1.203a3.104 3.104 0 0 1 1.04-.745 2.985 2.985 0 0 1 1.203-.253c.528 0 .984.09 1.367.273.387.182.704.438.95.766.246.323.428.706.547 1.148.118.438.178.916.178 1.436v.567H78.78v-1.032h4.26v-.096a3.156 3.156 0 0 0-.206-.957 1.72 1.72 0 0 0-.547-.765c-.25-.2-.592-.301-1.025-.301a1.722 1.722 0 0 0-1.415.718 2.685 2.685 0 0 0-.404.868 4.4 4.4 0 0 0-.143 1.182v.288c0 .35.048.68.143.99.1.306.244.575.431.807.191.233.422.415.69.547.274.132.584.199.93.199.447 0 .825-.092 1.135-.274a2.81 2.81 0 0 0 .813-.731l.766.608c-.16.242-.362.472-.608.69-.246.22-.55.397-.91.534-.355.136-.777.205-1.264.205Zm9.373-4.327v1.025h-3.91V13.81h3.91Zm-3.644-3.207V18H85.89v-7.396h1.264Zm4.67 0V18h-1.272v-7.396h1.271Zm3.404 5.394 3.41-5.393h1.272V18H98.64v-5.394L95.228 18H93.97v-7.396h1.258v5.393Zm8.21-1.524h1.367L102.665 18h-1.367l2.14-3.527Zm1.059-3.87h3.09V18h-1.265v-6.371h-1.825c-.36 0-.654.061-.882.184a1.154 1.154 0 0 0-.499.465 1.22 1.22 0 0 0-.013 1.176c.095.182.246.333.451.451.205.119.469.178.793.178h2.317v1.04h-2.317c-.424 0-.8-.058-1.128-.172a2.478 2.478 0 0 1-.834-.472 2.064 2.064 0 0 1-.52-.717 2.285 2.285 0 0 1-.177-.903c0-.323.061-.622.184-.895.128-.274.31-.513.547-.718.241-.205.535-.362.882-.472.351-.113.749-.17 1.196-.17Z" fill="#FBFBFB"/></svg><svg viewBox="0 0 16 16" class="gbi gbi-people" fill="currentColor" id="icons--people" xmlns="http://www.w3.org/2000/svg"><path fill-rule="evenodd" d="M15 14s1 0 1-1-1-4-5-4-5 3-5 4 1 1 1 1h8zm-7.978-1h7.956a.274.274 0 0 0 .014-.002l.008-.002c-.002-.264-.167-1.03-.76-1.72C13.688 10.629 12.718 10 11 10c-1.717 0-2.687.63-3.24 1.276-.593.69-.759 1.457-.76 1.72a1.05 1.05 0 0 0 .022.004zM11 7a2 2 0 1 0 0-4 2 2 0 0 0 0 4zm3-2a3 3 0 1 1-6 0 3 3 0 0 1 6 0zM6.936 9.28a5.88 5.88 0 0 0-1.23-.247A7.35 7.35 0 0 0 5 9c-4 0-5 3-5 4 0 .667.333 1 1 1h4.216A2.238 2.238 0 0 1 5 13c0-1.01.377-2.042 1.09-2.904.243-.294.526-.569.846-.816zM4.92 10c-1.668.02-2.615.64-3.16 1.276C1.163 11.97 1 12.739 1 13h3c0-1.045.323-2.086.92-3zM1.5 5.5a3 3 0 1 1 6 0 3 3 0 0 1-6 0zm3-2a2 2 0 1 0 0 4 2 2 0 0 0 0-4z"/></svg><svg viewBox="0 0 16 16" class="hbi hbi-person" fill="currentColor" id="icons--person" xmlns="http://www.w3.org/2000/svg"><path fill-rule="evenodd" d="M10 5a2 2 0 1 1-4 0 2 2 0 0 1 4 0zM8 8a3 3 0 1 0 0-6 3 3 0 0 0 0 6zm6 5c0 1-1 1-1 1H3s-1 0-1-1 1-4 6-4 6 3 6 4zm-1-.004c-.001-.246-.154-.986-.832-1.664C11.516 10.68 10.289 10 8 10c-2.29 0-3.516.68-4.168 1.332-.678.678-.83 1.418-.832 1.664h10z"/></svg><svg fill="none" viewBox="0 0 93 25" id="icons--profile" xmlns="http://www.w3.org/2000/svg"><path fill-rule="evenodd" clip-rule="evenodd" d="M15.625 7.813a3.125 3.125 0 1 1-6.25 0 3.125 3.125 0 0 1 6.25 0ZM12.5 12.5a4.688 4.688 0 1 0 0-9.376 4.688 4.688 0 0 0 0 9.376Zm9.375 7.813c0 1.562-1.563 1.562-1.563 1.562H4.688s-1.562 0-1.562-1.563c0-1.562 1.563-6.25 9.375-6.25 7.813 0 9.375 4.688 9.375 6.25Zm-1.563-.007c-.001-.384-.24-1.54-1.3-2.6-1.018-1.018-2.935-2.081-6.512-2.081-3.578 0-5.494 1.063-6.513 2.081-1.059 1.06-1.296 2.216-1.3 2.6h15.625Z" fill="#FBFBFB"/><path d="M41.757 8.047V18h-1.313V9.127h-4.908V18h-1.32V8.047h7.54Zm3.466 3.978v8.819H43.95v-10.24h1.162l.11 1.421Zm4.983 2.215v.144c0 .537-.064 1.037-.191 1.497a3.68 3.68 0 0 1-.56 1.19c-.242.337-.54.599-.896.785a2.59 2.59 0 0 1-1.224.28c-.47 0-.884-.077-1.244-.232a2.454 2.454 0 0 1-.916-.677 3.458 3.458 0 0 1-.602-1.066 6.169 6.169 0 0 1-.3-1.401v-.766a6.428 6.428 0 0 1 .307-1.47c.15-.432.349-.802.595-1.107.25-.31.553-.545.909-.704a2.907 2.907 0 0 1 1.23-.246c.465 0 .878.09 1.238.273.36.178.663.433.909.766.246.332.43.731.554 1.196.127.46.191.973.191 1.538Zm-1.271.144v-.144c0-.369-.04-.715-.117-1.039a2.627 2.627 0 0 0-.362-.861 1.726 1.726 0 0 0-.615-.588 1.75 1.75 0 0 0-.896-.219c-.319 0-.597.055-.834.164-.232.11-.43.258-.594.445a2.356 2.356 0 0 0-.404.629 3.61 3.61 0 0 0-.225.724v1.77c.09.32.218.62.383.903.164.278.382.504.656.677.273.168.617.253 1.032.253.342 0 .636-.071.882-.212.25-.146.456-.344.615-.595.164-.25.285-.538.362-.861.078-.328.117-.677.117-1.046Zm2.55 0v-.157c0-.534.077-1.028.232-1.484.155-.46.378-.859.67-1.196a2.99 2.99 0 0 1 1.06-.793 3.29 3.29 0 0 1 1.394-.287c.52 0 .986.095 1.401.287.42.187.775.451 1.067.793.296.337.521.736.676 1.196.155.456.233.95.233 1.484v.157c0 .533-.078 1.027-.233 1.483-.155.456-.38.855-.676 1.197a3.101 3.101 0 0 1-1.06.792c-.41.187-.875.28-1.395.28-.519 0-.986-.093-1.4-.28a3.171 3.171 0 0 1-1.067-.793 3.614 3.614 0 0 1-.67-1.196 4.579 4.579 0 0 1-.233-1.483Zm1.264-.157v.157c0 .369.043.718.13 1.046.087.323.216.61.39.861.177.25.398.449.663.595.264.141.572.212.922.212.347 0 .65-.071.91-.212.264-.146.483-.344.656-.595.173-.25.303-.538.39-.861.09-.328.136-.677.136-1.046v-.157c0-.365-.045-.71-.136-1.033a2.658 2.658 0 0 0-.397-.868 1.884 1.884 0 0 0-.656-.601 1.841 1.841 0 0 0-.916-.22c-.346 0-.652.074-.916.22-.26.145-.479.346-.656.601-.174.25-.303.54-.39.868-.087.324-.13.668-.13 1.033Zm15.559.205v.143c0 .52-.057.998-.171 1.436a3.414 3.414 0 0 1-.513 1.128 2.372 2.372 0 0 1-.834.745c-.333.173-.718.26-1.155.26-.36 0-.677-.048-.95-.144a1.938 1.938 0 0 1-.698-.43 2.168 2.168 0 0 1-.45-.67 3.435 3.435 0 0 1-.227-.89v-3.28c.042-.351.117-.666.226-.944a2.26 2.26 0 0 1 .451-.71c.192-.197.422-.347.69-.452a2.59 2.59 0 0 1 .944-.157 2.3 2.3 0 0 1 .957.191c.287.123.538.301.752.533.219.233.399.513.54.841.146.324.255.688.328 1.094.073.406.11.84.11 1.306Zm-1.265.143v-.143c0-.32-.023-.622-.068-.91a3.736 3.736 0 0 0-.199-.8c-.086-.245-.2-.46-.341-.642a1.48 1.48 0 0 0-.513-.424c-.196-.1-.422-.15-.677-.15-.273 0-.501.034-.684.102a1.064 1.064 0 0 0-.636.622v4.287c.056.1.135.196.24.287.105.086.246.16.424.219.178.054.4.082.67.082.319 0 .59-.064.813-.192.228-.132.413-.314.554-.547.146-.232.25-.501.314-.806.069-.306.103-.634.103-.985Zm-7.52 0v-.143c0-.465.037-.9.11-1.306.073-.406.182-.77.328-1.094.146-.328.326-.608.54-.84a2.269 2.269 0 0 1 1.716-.725c.35 0 .656.052.916.157.264.105.487.255.67.451.182.196.328.433.437.711.11.278.187.593.233.944v3.15a3.768 3.768 0 0 1-.226.937c-.11.278-.255.518-.437.718a1.803 1.803 0 0 1-.677.451 2.514 2.514 0 0 1-.93.158c-.437 0-.823-.087-1.155-.26a2.433 2.433 0 0 1-.841-.745 3.611 3.611 0 0 1-.513-1.128 5.69 5.69 0 0 1-.17-1.436Zm1.272-.143v.143c0 .351.03.68.089.985.064.305.162.574.294.806.137.233.314.415.533.547.219.128.488.192.807.192.273 0 .499-.035.676-.103a1.148 1.148 0 0 0 .663-.608V12.23a1.014 1.014 0 0 0-.225-.35 1.04 1.04 0 0 0-.417-.273 1.928 1.928 0 0 0-.684-.102c-.319 0-.59.077-.813.232a1.685 1.685 0 0 0-.54.636c-.132.269-.23.581-.294.936a6.73 6.73 0 0 0-.09 1.122Zm2.433 6.412V7.5H64.5v13.344h-1.272Zm8.101-4.847 3.411-5.393h1.272V18H74.74v-5.394L71.33 18H70.07v-7.396h1.258v5.393Zm11.655-5.393v1.045H79.41v-1.045h3.575Zm1.115 0V18h-1.265v-7.396h1.265Zm-4.997 0h1.271l-.191 3.568a13.226 13.226 0 0 1-.158 1.463c-.068.419-.164.78-.287 1.08-.118.3-.269.547-.45.738a1.651 1.651 0 0 1-.643.417c-.251.087-.54.13-.869.13h-.396v-1.114l.273-.02c.196-.014.363-.06.5-.137a.979.979 0 0 0 .355-.342c.096-.155.173-.354.232-.595.064-.242.112-.529.144-.861.036-.333.064-.72.082-1.162l.137-3.165Zm8.073 2.543h2.222c.596 0 1.1.104 1.51.314.41.205.72.49.93.854.214.36.321.77.321 1.23 0 .343-.059.664-.177.965a2.166 2.166 0 0 1-.534.78 2.462 2.462 0 0 1-.868.525 3.482 3.482 0 0 1-1.182.185h-3.145v-7.396h1.265v6.357h1.88c.364 0 .656-.066.874-.198.22-.133.376-.303.472-.513a1.563 1.563 0 0 0 0-1.313 1.228 1.228 0 0 0-.471-.533c-.22-.146-.51-.219-.876-.219h-2.221v-1.039Z" fill="#FBFBFB"/></svg></svg>