<?xml version="1.0" encoding="utf-8"?><svg viewBox="0 0 157.33 267.55" xmlns="http://www.w3.org/2000/svg" xmlns:xlink="http://www.w3.org/1999/xlink"><style>:root>svg{display:none}:root>svg:target{display:block}</style><svg viewBox="0 0 16 16" class="bbi bbi-chat" fill="currentColor" id="icons--chat" xmlns="http://www.w3.org/2000/svg"><path fill-rule="evenodd" d="M2.678 11.894a1 1 0 0 1 .287.801 10.97 10.97 0 0 1-.398 2c1.395-.323 2.247-.697 2.634-.893a1 1 0 0 1 .71-.074A8.06 8.06 0 0 0 8 14c3.996 0 7-2.807 7-6 0-3.192-3.004-6-7-6S1 4.808 1 8c0 1.468.617 2.83 1.678 3.894zm-.493 3.905a21.682 21.682 0 0 1-.713.129c-.2.032-.352-.176-.273-.362a9.68 9.68 0 0 0 .244-.637l.003-.01c.248-.72.45-1.548.524-2.319C.743 11.37 0 9.76 0 8c0-3.866 3.582-7 8-7s8 3.134 8 7-3.582 7-8 7a9.06 9.06 0 0 1-2.347-.306c-.52.263-1.639.742-3.468 1.105z"/></svg><svg viewBox="0 0 16 16" class="abi abi-chat-left-text" fill="currentColor" id="icons--chat-left-text" xmlns="http://www.w3.org/2000/svg"><path fill-rule="evenodd" d="M14 1H2a1 1 0 0 0-1 1v11.586l2-2A2 2 0 0 1 4.414 11H14a1 1 0 0 0 1-1V2a1 1 0 0 0-1-1zM2 0a2 2 0 0 0-2 2v12.793a.5.5 0 0 0 .854.353l2.853-2.853A1 1 0 0 1 4.414 12H14a2 2 0 0 0 2-2V2a2 2 0 0 0-2-2H2z"/><path fill-rule="evenodd" d="M3 3.5a.5.5 0 0 1 .5-.5h9a.5.5 0 0 1 0 1h-9a.5.5 0 0 1-.5-.5zM3 6a.5.5 0 0 1 .5-.5h9a.5.5 0 0 1 0 1h-9A.5.5 0 0 1 3 6zm0 2.5a.5.5 0 0 1 .5-.5h5a.5.5 0 0 1 0 1h-5a.5.5 0 0 1-.5-.5z"/></svg><svg viewBox="0 0 16 16" class="cbi cbi-cursor" fill="currentColor" id="icons--cursor" xmlns="http://www.w3.org/2000/svg"><path fill-rule="evenodd" d="M14.082 2.182a.5.5 0 0 1 .103.557L8.528 15.467a.5.5 0 0 1-.917-.007L5.57 10.694.803 8.652a.5.5 0 0 1-.006-.916l12.728-5.657a.5.5 0 0 1 .556.103zM2.25 8.184l3.897 1.67a.5.5 0 0 1 .262.263l1.67 3.897L12.743 3.52 2.25 8.184z"/></svg><svg viewBox="0 0 157.33 267.55" id="icons--logo" xmlns="http://www.w3.org/2000/svg"><defs><style>.dcls-1{fill:#1a1a1a}</style></defs><path fill="none" id="dcanvas_background" d="M-1-1h159.33v269.55H-1z"/><path id="dsvg_1" d="M139.44 267.38h-6.12a9 9 0 0 1-9-9v-75.12H32.56v75.12a9 9 0 0 1-9 9h-6a9 9 0 0 1-9-9v-173l24 16v62.25h91.75v-62.25l24.13-16v173a9 9 0 0 1-9 9z" class="dcls-1"/><path id="dsvg_2" class="dcls-1" d="m1 44.88 77.5 44.88L156 44.88 78.5 0 1 44.88z"/></svg><svg viewBox="0 0 16 16" class="ebi ebi-people" fill="currentColor" id="icons--people" xmlns="http://www.w3.org/2000/svg"><path fill-rule="evenodd" d="M15 14s1 0 1-1-1-4-5-4-5 3-5 4 1 1 1 1h8zm-7.978-1h7.956a.274.274 0 0 0 .014-.002l.008-.002c-.002-.264-.167-1.03-.76-1.72C13.688 10.629 12.718 10 11 10c-1.717 0-2.687.63-3.24 1.276-.593.69-.759 1.457-.76 1.72a1.05 1.05 0 0 0 .022.004zM11 7a2 2 0 1 0 0-4 2 2 0 0 0 0 4zm3-2a3 3 0 1 1-6 0 3 3 0 0 1 6 0zM6.936 9.28a5.88 5.88 0 0 0-1.23-.247A7.35 7.35 0 0 0 5 9c-4 0-5 3-5 4 0 .667.333 1 1 1h4.216A2.238 2.238 0 0 1 5 13c0-1.01.377-2.042 1.09-2.904.243-.294.526-.569.846-.816zM4.92 10c-1.668.02-2.615.64-3.16 1.276C1.163 11.97 1 12.739 1 13h3c0-1.045.323-2.086.92-3zM1.5 5.5a3 3 0 1 1 6 0 3 3 0 0 1-6 0zm3-2a2 2 0 1 0 0 4 2 2 0 0 0 0-4z"/></svg><svg viewBox="0 0 16 16" class="fbi fbi-person" fill="currentColor" id="icons--person" xmlns="http://www.w3.org/2000/svg"><path fill-rule="evenodd" d="M10 5a2 2 0 1 1-4 0 2 2 0 0 1 4 0zM8 8a3 3 0 1 0 0-6 3 3 0 0 0 0 6zm6 5c0 1-1 1-1 1H3s-1 0-1-1 1-4 6-4 6 3 6 4zm-1-.004c-.001-.246-.154-.986-.832-1.664C11.516 10.68 10.289 10 8 10c-2.29 0-3.516.68-4.168 1.332-.678.678-.83 1.418-.832 1.664h10z"/></svg></svg>